<?xml version="1.0" standalone="no"?> <!DOCTYPE svg PUBLIC "-//W3C//DTD SVG 1.0//EN" "http://www.w3.org/TR/2001/REC-SVG-20010904/DTD/svg10.dtd" > <svg xmlns="http://www.w3.org/2000/svg" width="100%" height="100%">
<defs >
<font id="consola" horiz-adv-x="1126" ><font-face
    font-family="Consolas"
    units-per-em="2048"
    panose-1="2 11 6 9 2 2 4 3 2 4"
    ascent="1521"
    descent="-527"
    alphabetic="0" />
<missing-glyph d="M1038 1307V0H88V1307H1038ZM944 92V1214H180V92H944ZM799 836Q799 791 783 749T734 674T650 622T526 602L522 444H422L416 696H530Q674 696 674 827Q674 872 653 908T594 969T503 1008T385 1022H350V1122H391Q496 1122 572 1097T699 1031T774
939T799 836ZM471 354Q508 354 532 329T557 266Q557 248 551 233T533 206T505 187T471 180Q453 180 438 187T411 205T392 232T385 266Q385 284 392 300T410 328T437 347T471 354Z" />
<glyph unicode=" " glyph-name="null" />
<glyph unicode="!" glyph-name="null" d="M666 1413L639 383H485L455 1413H666ZM561 246Q588 246 612 236T653 207T681 165T692 113Q692 86 682 62T654 21T612 -7T561 -18Q533 -18 509 -8T467 20T439 62T428 113Q428 140 438 164T467 207T509 235T561 246Z" />
<glyph unicode="&quot;" glyph-name="null" d="M479 1413L451 944H287L258 1413H479ZM868 1413L840 944H676L647 1413H868Z" />
<glyph unicode="#" glyph-name="null" d="M1030 367H807L770 0H622L659 367H404L367 0H219L256 367H43V497H269L305 847H94V977H318L352 1307H498L465 977H721L755 1307H903L868 977H1083V847H855L820 497H1030V367ZM673 497L708 847H452L417 497H673Z" />
<glyph unicode="$" glyph-name="null" d="M592 1495H737L711 1300Q763 1295 815 1287T913 1268V1114Q858 1128 802 1138T692 1153L635 725Q702 699 768 669T886 597T971 498T1004 362Q1004 278 970 213T875 103T728 33T539 2L506 -236H360L393 2Q312 8 239 19T111
45V211Q174 189 248 175T414 156L473 606Q408 631 345 660T233 729T152 825T121 956Q121 1018 147 1078T228 1187T367 1267T567 1305L592 1495ZM547 1155Q422 1144 365 1097T307 975Q307 906 354 862T496 780L547 1155ZM559 156Q694 166 755 216T817 352Q817 388
804 416T765 468T701 511T610 551L559 156Z" />
<glyph unicode="%" glyph-name="null" d="M1106 1413L184 0H20L940 1413H1106ZM573 1133Q573 1068 554 1013T500 917T414 853T301 829Q240 829 192 848T109 904T56 997T37 1124Q37 1188 56 1243T110 1340T196 1404T309 1427Q370 1427 418 1408T501 1352T554 1260T573
1133ZM426 1128Q426 1216 394 1258T305 1300Q276 1300 254 1287T216 1251T192 1197T184 1128Q184 1040 216 998T305 956Q334 956 356 969T394 1005T418 1059T426 1128ZM1090 289Q1090 224 1071 169T1016 73T930 9T817 -14Q756 -14 708 5T625 61T572 153T553 281Q553
345 572 400T626 497T712 561T825 584Q886 584 935 565T1018 509T1071 416T1090 289ZM943 285Q943 373 911 415T821 457Q792 457 770 444T732 408T708 354T700 285Q700 197 732 155T821 113Q850 113 872 126T911 162T935 216T943 285Z" />
<glyph unicode="&amp;" glyph-name="null" d="M1024 682Q1024 551 998 444T924 252L1126 0H895L807 109Q736 49 649 18T459 -14Q362 -14 287 13T161 88T84 204T57 352Q57 428 77 487T131 593T209 675T303 741L281 772Q225 841 198 912T170 1051Q170 1123 193 1184T260
1289T370 1359T520 1384Q601 1384 662 1361T764 1298T825 1206T846 1094Q846 1019 821 963T754 863T659 785T549 719L807 397Q851 515 848 682H1024ZM238 373Q238 320 255 276T303 201T380 152T483 135Q613 135 711 231L393 629Q359 606 331 580T282 523T250 455T238
373ZM670 1077Q670 1152 628 1194T514 1237Q474 1237 444 1224T392 1188T361 1134T350 1067Q350 1013 370 967T434 864L461 829Q504 853 542 877T608 931T653 996T670 1077Z" />
<glyph unicode="&apos;" glyph-name="null" d="M678 1413L649 944H477L449 1413H678Z" />
<glyph unicode="(" glyph-name="null" d="M761 -420Q300 7 300 524Q300 645 324 765T403 1007T547 1249T765 1489L866 1386Q478 1003 478 537Q478 305 576 91T866 -313L761 -420Z" />
<glyph unicode=")" glyph-name="null" d="M365 1489Q826 1062 826 539Q826 431 804 315T729 78T587 -169T361 -420L260 -317Q455 -124 551 86T647 526Q647 1002 260 1382L365 1489Z" />
<glyph unicode="*" glyph-name="null" d="M961 840L893 721L612 907L635 565H492L514 907L227 721L164 838L471 989L164 1143L233 1260L516 1071L492 1413H635L610 1071L893 1262L963 1139L655 987L961 840Z" />
<glyph unicode="+" glyph-name="null" d="M1042 469H649V61H477V469H84V621H477V1026H649V621H1042V469Z" />
<glyph unicode="," glyph-name="null" d="M238 -205Q289 -207 337 -196T421 -164T480 -110T502 -37Q502 5 488 31T455 79T423 126T408 193Q408 214 416 237T440 279T482 310T543 322Q578 322 610 308T667 263T706 188T721 82Q721 -1 691 -77T600 -213T449 -307T238
-342V-205Z" />
<glyph unicode="-" glyph-name="null" d="M862 463H264V627H862V463Z" />
<glyph unicode="." glyph-name="null" d="M555 315Q589 315 619 302T672 266T708 213T721 147Q721 113 708 83T673 31T620 -5T555 -18Q520 -18 490 -5T438 30T402 83T389 147Q389 182 402 212T437 266T490 302T555 315Z" />
<glyph unicode="/" glyph-name="null" d="M967 1413L281 -215H115L801 1413H967Z" />
<glyph unicode="0" glyph-name="null" d="M1038 653Q1038 503 1008 380T917 168T766 31T553 -18Q448 -18 362 21T215 143T121 352T88 653Q88 803 118 927T209 1139T361 1276T573 1325Q678 1325 764 1286T911 1164T1005 954T1038 653ZM862 647Q862 681 860 714T854
780L301 369Q316 317 339 273T394 198T468 149T563 131Q631 131 686 164T781 262T841 423T862 647ZM264 659Q264 628 264 597T268 537L821 946Q806 997 783 1039T728 1111T655 1159T563 1176Q495 1176 440 1143T345 1045T285 883T264 659Z" />
<glyph unicode="1" glyph-name="null" d="M997 0H176V162H512V1116L199 946L135 1094L551 1313H705V162H997V0Z" />
<glyph unicode="2" glyph-name="null" d="M1008 0H147V156L485 492Q568 574 620 634T701 743T740 837T750 932Q750 980 737 1023T697 1100T627 1152T524 1171Q441 1171 373 1134T248 1038L152 1153Q226 1231 322 1278T547 1325Q634 1325 705 1299T829 1224T909
1104T938 944Q938 869 918 805T858 678T756 546T610 397L373 166H1008V0Z" />
<glyph unicode="3" glyph-name="null" d="M983 397Q983 311 948 236T843 104T667 15T420 -18Q342 -18 280 -13T164 0V156Q226 145 295 139T436 133Q534 133 603 150T717 201T781 281T801 387Q801 441 777 481T710 548T606 588T473 602H324V745H475Q534 745 582
760T665 805T718 876T737 973Q737 1078 673 1126T485 1174Q419 1174 349 1161T199 1122V1274Q233 1286 271 1295T348 1311T425 1321T498 1325Q602 1325 681 1303T813 1238T893 1136T920 1001Q920 889 863 813T705 692Q756 684 805 660T894 599T958 510T983 397Z"
/>
<glyph unicode="4" glyph-name="null" d="M1073 289H850V0H672V289H43V442L600 1307H850V442H1073V289ZM672 1139L217 442H672V1139Z" />
<glyph unicode="5" glyph-name="null" d="M975 418Q975 321 933 241T818 104T644 14T428 -18Q399 -18 366 -17T299 -13T235 -7T178 0V158Q232 145 301 139T442 133Q522 133 586 152T695 206T764 292T788 406Q788 528 701 583T449 639H201V1307H905V1155H365V788H479Q573
788 662 771T820 712T932 598T975 418Z" />
<glyph unicode="6" glyph-name="null" d="M1024 414Q1024 324 992 245T899 108T755 16T567 -18Q459 -18 376 16T237 122T152 303T123 561Q123 661 136 755T179 932T259 1084T383 1202T559 1279T793 1307H922V1155H782Q665 1155 579 1127T435 1048T346 925T307
764L303 723Q366 760 448 782T627 805Q726 805 800 776T924 696T999 572T1024 414ZM842 403Q842 463 828 511T782 593T704 645T590 664Q552 664 513 657T437 638T365 609T303 575Q303 446 321 360T374 221T462 147T582 125Q639 125 686 143T768 198T822 285T842
403Z" />
<glyph unicode="7" glyph-name="null" d="M1001 1145L453 0H254L823 1145H117V1307H1001V1145Z" />
<glyph unicode="8" glyph-name="null" d="M1008 328Q1008 245 974 181T879 72T735 5T555 -18Q448 -18 367 6T230 73T147 175T119 305Q119 425 186 512T393 670Q265 735 206 814T147 997Q147 1060 173 1119T251 1224T383 1297T569 1325Q670 1325 746 1304T875 1242T953
1145T979 1018Q979 904 916 824T735 684Q793 655 843 620T930 542T987 446T1008 328ZM801 1004Q801 1093 739 1136T563 1180Q451 1180 389 1137T326 1008Q326 969 341 936T387 874T466 817T578 760Q691 813 746 870T801 1004ZM819 315Q819 352 807 387T764 456T681
524T549 594Q481 561 435 529T360 463T319 393T307 317Q307 272 326 238T380 179T461 143T563 131Q616 131 663 142T744 175T799 232T819 315Z" />
<glyph unicode="9" glyph-name="null" d="M1001 727Q1001 536 955 399T819 173T596 42T289 0H180V152H301Q430 152 524 178T680 254T776 377T817 543L821 584Q758 547 676 525T498 502Q399 502 324 531T200 612T125 735T100 891Q100 982 133 1061T225 1198T368
1291T551 1325Q648 1325 730 1293T873 1190T967 1004T1001 727ZM543 1182Q487 1182 440 1164T358 1110T303 1022T283 903Q283 842 297 794T342 713T421 661T535 643Q572 643 611 650T688 669T760 697T821 731Q821 860 802 946T747 1085T660 1160T543 1182Z" />
<glyph unicode=":" glyph-name="null" d="M563 1022Q594 1022 622 1010T671 976T704 927T717 868Q717 836 705 809T671 760T622 727T563 715Q531 715 504 727T455 760T422 808T410 868Q410 899 422 927T455 976T503 1009T563 1022ZM563 289Q594 289 622 277T671
243T704 194T717 135Q717 103 705 76T671 27T622 -6T563 -18Q531 -18 504 -6T455 27T422 75T410 135Q410 166 422 194T455 243T503 276T563 289Z" />
<glyph unicode=";" glyph-name="null" d="M250 -205Q301 -207 349 -196T433 -164T492 -110T514 -37Q514 5 500 31T467 79T435 126T420 193Q420 214 428 237T452 279T494 310T555 322Q590 322 622 308T679 263T718 188T733 82Q733 -1 703 -77T612 -213T461 -307T250
-342V-205ZM563 1022Q594 1022 622 1010T671 976T704 927T717 868Q717 836 705 809T671 760T622 727T563 715Q531 715 504 727T455 760T422 808T410 868Q410 899 422 927T455 976T503 1009T563 1022Z" />
<glyph unicode="&lt;" glyph-name="null" d="M918 94L809 -16L137 545L809 1106L918 995L373 547L918 94Z" />
<glyph unicode="=" glyph-name="null" d="M993 646H133V793H993V646ZM993 298H133V445H993V298Z" />
<glyph unicode="&gt;" glyph-name="null" d="M209 995L317 1106L989 545L317 -16L209 94L754 543L209 995Z" />
<glyph unicode="?" glyph-name="null" d="M922 969Q922 807 832 724T571 629L563 383H414L401 766H518Q579 766 620 779T686 816T722 874T733 952Q733 1025 703 1082T619 1178T491 1237T328 1257H303V1413H330Q431 1413 514 1394T663 1343T777 1266T858 1173T906
1072T922 969ZM487 246Q515 246 539 236T580 207T608 165T618 113Q618 86 608 62T581 21T539 -7T487 -18Q460 -18 436 -8T394 20T366 62T356 113Q356 140 366 164T394 207T436 235T487 246Z" />
<glyph unicode="@" glyph-name="null" d="M780 408Q771 344 770 302T775 236T796 203T831 193Q859 193 884 222T928 313T959 469T971 692Q971 836 953 949T896 1141T795 1261T643 1303Q575 1303 512 1269T394 1172T295 1022T219 828T170 600T152 346Q152 24 249
-134T522 -293Q611 -293 688 -273T848 -211V-340Q766 -378 684 -397T512 -416Q257 -416 135 -225T10 344Q9 495 30 633T90 892T186 1110T314 1278T470 1386T649 1425Q768 1425 855 1377T1000 1237T1084 1012T1112 709Q1111 537 1090 415T1029 214T935 100T811 63Q733
63 695 103T657 211Q619 134 575 99T469 63Q375 63 328 133T281 356Q281 411 287 474T309 600T350 722T411 825T498 897T612 924Q650 924 683 915T731 897L860 928L780 408ZM678 764Q669 776 651 785T604 795Q574 795 550 774T508 718T477 639T456 547T444 455T440
373Q440 277 452 235T498 193Q510 193 522 198T547 217T577 258T612 326L678 764Z" />
<glyph unicode="A" glyph-name="null" d="M1116 0H922L831 285H287L195 0H10L444 1307H688L1116 0ZM780 444L559 1143L338 444H780Z" />
<glyph unicode="B" glyph-name="null" d="M1016 391Q1016 297 980 225T876 102T713 26T500 0H158V1307H532Q969 1307 969 989Q969 883 919 807T754 694Q807 684 854 660T938 598T995 508T1016 391ZM784 965Q784 1005 772 1040T730 1101T649 1142T520 1157H336V748H514Q575
748 624 761T709 801T764 868T784 965ZM827 385Q827 435 806 475T745 542T648 585T518 600H336V150H524Q677 150 752 207T827 385Z" />
<glyph unicode="C" glyph-name="null" d="M995 49Q838 -16 666 -16Q389 -16 241 149T92 639Q92 796 133 923T250 1138T434 1275T676 1323Q767 1323 845 1308T995 1260V1085Q924 1124 848 1144T682 1165Q590 1165 516 1131T389 1031T309 871T281 655Q281 401 384
272T686 143Q770 143 847 162T995 217V49Z" />
<glyph unicode="D" glyph-name="null" d="M1053 668Q1053 574 1039 488T992 328T909 194T784 90T612 24T389 0H109V1307H446Q752 1307 902 1150T1053 668ZM866 655Q866 794 840 890T761 1045T628 1130T440 1157H287V154H420Q866 154 866 655Z" />
<glyph unicode="E" glyph-name="null" d="M944 0H201V1307H944V1157H379V752H922V602H379V152H944V0Z" />
<glyph unicode="F" glyph-name="null" d="M942 1155H387V731H913V582H387V0H205V1307H942V1155Z" />
<glyph unicode="G" glyph-name="null" d="M1006 1083Q933 1122 856 1143T688 1165Q584 1165 503 1128T367 1024T282 861T252 651Q252 531 276 436T351 275T481 174T672 139Q691 139 713 141T757 146T799 155T836 166V582H569V729H1012V61Q971 42 926 27T833 2T738
-13T647 -18Q513 -18 406 24T223 148T107 354T66 639Q66 800 111 927T237 1143T433 1278T686 1325Q774 1325 853 1310T1006 1260V1083Z" />
<glyph unicode="H" glyph-name="null" d="M1016 0H838V600H289V0H111V1307H289V754H838V1307H1016V0Z" />
<glyph unicode="I" glyph-name="null" d="M473 1157H172V1307H954V1157H653V152H954V0H172V152H473V1157Z" />
<glyph unicode="J" glyph-name="null" d="M877 1307V399Q877 315 852 240T776 108T648 19T467 -14Q428 -14 388 -9T310 6T239 29T182 59V238Q244 193 319 167T469 141Q578 141 637 207T696 399V1153H199V1307H877Z" />
<glyph unicode="K" glyph-name="null" d="M1047 0H823L334 641V0H156V1307H334V700L813 1307H1024L508 686L1047 0Z" />
<glyph unicode="L" glyph-name="null" d="M985 0H233V1307H414V152H985V0Z" />
<glyph unicode="M" glyph-name="null" d="M1077 0H903L877 815L866 1128L805 946L612 426H489L305 926L244 1128L240 801L217 0H49L113 1307H324L500 815L557 649L612 815L797 1307H1014L1077 0Z" />
<glyph unicode="N" glyph-name="null" d="M1008 0H776L395 815L285 1077V418V0H119V1307H348L711 535L842 236V936V1307H1008V0Z" />
<glyph unicode="O" glyph-name="null" d="M1071 662Q1071 486 1030 358T918 147T753 23T553 -18Q427 -18 334 27T179 159T87 368T57 647Q57 821 98 949T209 1160T374 1284T573 1325Q699 1325 792 1279T948 1148T1040 939T1071 662ZM886 649Q886 764 869 859T812
1024T712 1131T563 1169Q479 1169 419 1129T319 1019T261 856T242 657Q242 541 260 446T316 282T416 175T563 137Q647 137 708 177T808 287T867 450T886 649Z" />
<glyph unicode="P" glyph-name="null" d="M1016 907Q1016 827 986 749T893 608T732 508T498 469H336V0H158V1307H526Q623 1307 712 1286T868 1216T976 1092T1016 907ZM831 899Q831 1025 749 1092T518 1159H336V621H502Q660 621 745 690T831 899Z" />
<glyph unicode="Q" glyph-name="null" d="M467 -12Q363 3 286 54T158 188T82 385T57 637Q57 815 98 945T209 1159T374 1284T573 1325Q699 1325 792 1280T948 1149T1040 942T1071 668Q1071 508 1037 388T944 183T805 51T633 -12Q648 -100 703 -153T858 -207Q906
-207 952 -191T1047 -137L1126 -260Q1060 -314 990 -337T846 -360Q766 -360 699 -338T583 -273T503 -164T467 -12ZM886 647Q886 763 869 858T812 1022T712 1129T563 1167Q479 1167 419 1127T319 1019T261 859T242 664Q242 545 260 449T316 283T416 177T563 139Q647
139 708 179T808 288T867 449T886 647Z" />
<glyph unicode="R" glyph-name="null" d="M1051 0H850L655 418Q633 466 610 497T561 547T503 574T432 582H348V0H170V1307H520Q634 1307 716 1282T850 1212T927 1104T952 963Q952 902 934 848T881 749T793 672T672 623Q727 604 765 557T844 430L1051 0ZM766 948Q766
1053 701 1105T516 1157H348V725H492Q555 725 605 739T691 782T746 852T766 948Z" />
<glyph unicode="S" glyph-name="null" d="M997 354Q997 261 959 191T853 75T690 5T479 -18Q427 -18 376 -14T277 -4T187 10T111 27V199Q186 171 279 155T492 139Q578 139 638 152T737 192T793 257T811 344Q811 397 782 434T704 501T595 555T469 606T344 662T234
734T157 832T127 965Q127 1032 155 1097T242 1212T393 1294T614 1325Q647 1325 685 1322T763 1314T841 1301T913 1286V1126Q836 1148 759 1159T610 1171Q457 1171 385 1120T313 983Q313 930 342 892T420 824T529 770T655 719T780 662T890 589T967 489T997 354Z"
/>
<glyph unicode="T" glyph-name="null" d="M1040 1155H653V0H473V1155H86V1307H1040V1155Z" />
<glyph unicode="U" glyph-name="null" d="M1018 455Q1018 347 988 260T898 111T754 16T557 -18Q435 -18 350 14T212 104T134 245T109 428V1307H287V442Q287 365 301 307T349 210T434 151T563 131Q705 131 772 213T840 444V1307H1018V455Z" />
<glyph unicode="V" glyph-name="null" d="M1122 1307L678 0H438L4 1307H205L487 426L567 168L649 426L932 1307H1122Z" />
<glyph unicode="W" glyph-name="null" d="M1081 1307L993 0H762L600 465L555 614L508 453L358 0H135L45 1307H213L264 418L279 174L342 381L500 866H623L805 346L866 174L870 354L922 1307H1081Z" />
<glyph unicode="X" glyph-name="null" d="M1102 0H877L559 528L240 0H18L453 668L53 1307H264L563 815L864 1307H1069L668 676L1102 0Z" />
<glyph unicode="Y" glyph-name="null" d="M1126 1307L653 467V0H473V471L0 1307H215L475 829L571 637L659 811L922 1307H1126Z" />
<glyph unicode="Z" glyph-name="null" d="M1001 1167L334 166H1014V0H111V133L782 1145H129V1307H1001V1167Z" />
<glyph unicode="[" glyph-name="null" d="M838 -410H345V1448H838V1308H511V-270H838V-410Z" />
<glyph unicode="\" glyph-name="null" d="M1012 -215H846L160 1413H326L1012 -215Z" />
<glyph unicode="]" glyph-name="null" d="M781 -410H288V-270H613V1308H288V1448H781V-410Z" />
<glyph unicode="^" glyph-name="null" d="M1014 668H840L551 1169L279 668H121L487 1307H629L1014 668Z" />
<glyph unicode="_" glyph-name="null" d="M1126 -410H0V-266H1126V-410Z" />
<glyph unicode="`" glyph-name="null" d="M668 1171H494L174 1413H426L668 1171Z" />
<glyph unicode="a" glyph-name="null" d="M805 0L801 135Q719 54 635 18T457 -18Q371 -18 310 4T210 64T152 155T133 268Q133 419 245 504T578 590H786V678Q786 767 729 820T555 874Q470 874 388 855T217 801V958Q250 970 290 981T376 1002T470 1016T569 1022Q660
1022 733 1002T856 941T934 838T961 692V0H805ZM786 457H565Q500 457 453 444T376 407T332 350T317 274Q317 245 326 219T355 172T407 139T485 127Q545 127 622 163T786 279V457Z" />
<glyph unicode="b" glyph-name="null" d="M1018 520Q1018 395 984 297T886 130T731 25T526 -12Q437 -12 344 5T160 59V1413H334V1024L326 838Q401 939 486 980T670 1022Q756 1022 821 986T930 885T996 727T1018 520ZM840 512Q840 591 829 657T792 770T728 843T635
870Q602 870 568 860T498 825T421 760T334 659V172Q385 152 438 141T539 129Q599 129 653 148T749 211T815 329T840 512Z" />
<glyph unicode="c" glyph-name="null" d="M940 37Q872 11 801 -1T653 -14Q415 -14 287 115T158 492Q158 611 195 708T299 874T459 980T664 1018Q742 1018 810 1007T940 971V805Q875 839 808 854T668 870Q601 870 542 845T437 771T366 654T340 498Q340 316 428
226T674 135Q745 135 811 151T940 199V37Z" />
<glyph unicode="d" glyph-name="null" d="M109 481Q109 609 144 708T243 876T398 980T600 1016Q648 1016 694 1010T786 991V1413H961V0H805L799 190Q726 84 641 33T457 -18Q371 -18 306 18T197 119T131 277T109 481ZM287 492Q287 310 340 221T492 131Q558 131
631 190T786 365V831Q743 851 691 861T588 872Q446 872 367 780T287 492Z" />
<glyph unicode="e" glyph-name="null" d="M1008 555Q1008 518 1007 493T1004 446H299Q299 292 385 210T633 127Q677 127 721 130T806 140T884 153T954 170V27Q883 7 794 -5T608 -18Q479 -18 386 17T234 118T146 281T117 500Q117 606 147 700T236 866T380 980T573
1022Q678 1022 759 989T895 896T979 749T1008 555ZM827 580Q830 647 814 702T765 798T681 860T565 883Q508 883 461 861T380 799T325 703T299 580H827Z" />
<glyph unicode="f" glyph-name="null" d="M1051 1251Q914 1280 815 1280Q580 1280 580 1034V858H1020V713H580V0H403V713H80V858H403V1024Q403 1425 821 1425Q925 1425 1051 1401V1251Z" />
<glyph unicode="g" glyph-name="null" d="M883 862Q911 827 926 781T942 680Q942 602 914 538T833 427T709 356T549 330Q486 330 431 343T344 377Q325 349 312 324T299 268Q299 230 335 205T432 178L696 168Q771 166 834 149T943 100T1014 21T1040 -88Q1040 -155
1011 -215T922 -320T768 -393T547 -420Q425 -420 340 -401T199 -347T119 -265T94 -160Q94 -87 128 -32T233 74Q207 86 188 104T157 143T139 189T133 236Q133 301 163 355T236 457Q217 480 203 502T178 549T162 604T156 672Q156 750 184 814T264 925T388 996T549
1022Q586 1022 620 1017T680 1004H1044V862H883ZM279 -145Q279 -216 353 -248T559 -281Q642 -281 698 -266T789 -227T839 -171T854 -106Q854 -45 804 -16T651 18L389 27Q356 5 335 -16T301 -58T284 -101T279 -145ZM332 676Q332 628 348 588T393 520T461 477T549
461Q601 461 641 478T709 526T751 595T766 676Q766 724 750 764T705 832T637 875T549 891Q497 891 457 873T389 826T347 757T332 676Z" />
<glyph unicode="h" glyph-name="null" d="M967 0H793V641Q793 757 750 814T625 872Q590 872 560 863T496 830T424 766T334 666V0H160V1413H334V1004L328 846Q369 895 408 928T487 983T568 1013T653 1022Q803 1022 885 931T967 655V0Z" />
<glyph unicode="i" glyph-name="null" d="M502 860H205V1004H678V145H977V0H172V145H502V860ZM563 1425Q592 1425 617 1415T660 1385T689 1342T700 1288Q700 1260 690 1235T661 1191T617 1162T563 1151Q534 1151 509 1161T466 1191T437 1235T426 1288Q426 1317
436 1341T465 1385T509 1414T563 1425Z" />
<glyph unicode="j" glyph-name="null" d="M840 1004V18Q840 -87 810 -168T724 -306T587 -391T403 -420Q329 -420 259 -407T131 -369V-203Q162 -219 197 -232T270 -254T346 -267T420 -272Q534 -272 599 -200T664 12V860H172V1004H840ZM735 1425Q764 1425 789 1415T832
1385T861 1341T872 1288Q872 1259 862 1235T833 1191T789 1162T735 1151Q706 1151 681 1161T638 1191T609 1234T598 1288Q598 1316 608 1341T637 1385T681 1414T735 1425Z" />
<glyph unicode="k" glyph-name="null" d="M1063 0H824L356 538V0H182V1413H356V545L807 1004H1037L566 541L1063 0Z" />
<glyph unicode="l" glyph-name="null" d="M502 1270H205V1413H678V145H977V0H172V145H502V1270Z" />
<glyph unicode="m" glyph-name="null" d="M876 0V721Q876 768 873 798T862 845T843 870T814 877Q794 877 777 865T741 826T698 755T642 645V0H483V702Q483 757 480 791T469 844T449 870T420 877Q402 877 386 867T351 831T307 760T250 645V0H90V1004H223L231 813Q257
870 281 910T332 974T387 1010T453 1022Q534 1022 576 969T618 805Q642 857 665 897T714 965T773 1007T847 1022Q1036 1022 1036 731V0H876Z" />
<glyph unicode="n" glyph-name="null" d="M160 1004H315L322 842Q366 894 407 928T487 984T568 1013T653 1022Q808 1022 887 931T967 655V0H793V641Q793 759 749 815T618 872Q586 872 556 863T492 830T421 766T334 666V0H160V1004Z" />
<glyph unicode="o" glyph-name="null" d="M1034 510Q1034 393 1001 296T906 129T755 21T553 -18Q445 -18 360 15T215 114T124 275T92 496Q92 613 125 709T220 875T371 983T573 1022Q681 1022 766 989T911 891T1002 730T1034 510ZM856 502Q856 595 836 664T777
780T685 850T563 874Q485 874 430 844T339 762T287 644T270 502Q270 409 290 339T349 223T441 153T563 129Q641 129 696 159T787 241T839 359T856 502Z" />
<glyph unicode="p" glyph-name="null" d="M1018 520Q1018 386 981 286T877 120T721 21T526 -12Q478 -12 431 -7T334 10V-410H160V1004H315L326 836Q401 939 486 980T670 1022Q756 1022 821 986T930 885T996 727T1018 520ZM840 512Q840 591 829 657T792 770T728
843T635 870Q602 870 568 860T498 825T421 760T334 659V172Q382 152 435 141T539 129Q680 129 760 224T840 512Z" />
<glyph unicode="q" glyph-name="null" d="M109 481Q109 589 137 686T225 856T378 973T600 1016Q651 1016 701 1008T807 983L961 1022V-410H786V-31L795 184Q653 -18 457 -18Q369 -18 304 18T196 120T131 278T109 481ZM287 492Q287 408 299 341T337 228T401 156T492
131Q558 131 631 190T786 365V831Q746 850 696 862T588 874Q441 874 364 777T287 492Z" />
<glyph unicode="r" glyph-name="null" d="M201 1004H360L365 819Q454 926 540 974T715 1022Q871 1022 951 921T1026 621H850Q853 753 812 812T690 872Q655 872 620 860T547 820T467 749T377 645V0H201V1004Z" />
<glyph unicode="s" glyph-name="null" d="M955 274Q955 221 937 179T888 105T816 49T729 11T633 -11T537 -18Q435 -18 350 -9T182 20V180Q270 155 357 142T530 129Q655 129 715 163T775 260Q775 287 766 308T731 349T654 390T510 438Q442 458 385 483T285 544T219
626T195 737Q195 779 214 829T281 922T408 993T608 1022Q667 1022 739 1016T889 993V838Q807 858 734 867T606 877Q541 877 497 867T425 840T385 799T373 748Q373 721 383 699T422 657T502 616T635 571Q724 545 785 517T884 453T938 374T955 274Z" />
<glyph unicode="t" glyph-name="null" d="M969 14Q910 -1 847 -7T719 -14Q530 -14 437 71T344 334V858H63V1004H344V1280L518 1325V1004H969V858H518V348Q518 240 575 187T745 133Q793 133 850 140T969 164V14Z" />
<glyph unicode="u" glyph-name="null" d="M967 0H811L805 162Q760 110 720 76T639 20T559 -9T473 -18Q318 -18 239 73T160 348V1004H334V362Q334 131 508 131Q540 131 570 140T634 173T706 237T793 338V1004H967V0Z" />
<glyph unicode="v" glyph-name="null" d="M66 1004H264L510 340L563 178L618 344L862 1004H1053L659 0H459L66 1004Z" />
<glyph unicode="w" glyph-name="null" d="M1090 1004L944 0H733L588 420L559 522L526 414L387 0H182L37 1004H207L291 322L309 170L352 303L498 754H623L780 309L825 176L840 317L918 1004H1090Z" />
<glyph unicode="x" glyph-name="null" d="M1065 0H834L563 383L295 0H70L459 504L88 1004H311L575 618L834 1004H1049L672 500L1065 0Z" />
<glyph unicode="y" glyph-name="null" d="M1053 1004L711 106Q658 -31 602 -130T478 -292T331 -386T152 -416Q126 -416 105 -415T59 -412V-254Q81 -257 107 -259T162 -262Q210 -262 251 -248T330 -203T401 -121T467 0L66 1004H264L518 340L569 184L627 344L862
1004H1053Z" />
<glyph unicode="z" glyph-name="null" d="M973 0H164V125L731 858H178V1004H940V868L383 147H973V0Z" />
<glyph unicode="{" glyph-name="null" d="M897 -410H823Q630 -410 536 -320T442 -45V299Q442 348 431 386T393 451T320 492T205 506H162V645H205Q278 645 324 657T396 693T432 756T442 846V1083Q442 1167 462 1234T527 1349T645 1422T823 1448H897V1308H838Q606
1308 606 1083V850Q606 606 395 575Q608 554 608 301V-41Q608 -270 838 -270H897V-410Z" />
<glyph unicode="|" glyph-name="null" d="M645 -410H481V1638H645V-410Z" />
<glyph unicode="}" glyph-name="null" d="M229 1448H303Q496 1448 590 1358T684 1083V852Q684 803 695 765T733 700T807 659T922 645H965V506H922Q849 506 803 494T730 458T694 395T684 305V-45Q684 -129 664 -196T599 -311T481 -384T303 -410H229V-270H289Q520
-270 520 -45V301Q520 545 731 575Q518 598 518 850V1079Q518 1308 289 1308H229V1448Z" />
<glyph unicode="~" glyph-name="null" d="M1061 696Q1062 620 1045 556T992 444T903 371T778 344Q723 344 679 362T598 409T529 470T467 531T406 577T342 596Q283 596 255 549T226 401H66Q64 477 81 541T134 653T223 727T348 754Q403 754 447 736T528 689T597
628T659 567T720 521T784 502Q847 502 874 548T901 696H1061Z" />
</font>
</defs>
</svg>
